# xmcd
#
# Track frame offsets: 
#        225
#        10160
#        20438
#        33293
#        44190
#        56740
#        67013
#        73373
#
# Disc length: 1113 seconds
#
# Revision: 0
# Processed by: cddbd v1.5.1PL0 Copyright (c) Steve Scherf et al.
# Submitted via: ExactAudioCopy v0.90b4
#
DISCID=76045608
DTITLE=Mickey Gilley - Texas Dynamite
DYEAR=1981
DGENRE=Country
TTITLE0=Fraulein
TTITLE1=Keepin' On
TTITLE2=Still Care About You
TTITLE3=Grapevine
TTITLE4=Just Out Of Reach
TTITLE5=That's How It's Gotta Be
TTITLE6=The Boy Who Didn't Pass
TTITLE7=I Miss You So
EXTD=
EXTT0=
EXTT1=
EXTT2=
EXTT3=
EXTT4=
EXTT5=
EXTT6=
EXTT7=
PLAYORDER=
